<?xml version="1.0" encoding="UTF-8"?>
<svg id="Layer_1" xmlns="http://www.w3.org/2000/svg" version="1.1" viewBox="0 0 306 91">
  <defs>
    <style>
      .st0 { fill: #010101; }
      .st1 { fill: #00769b; }
      .st2 { fill: #f36f3a; }
      .st3 { fill: #00769c; }
    </style>
  </defs>
  <path class="st3" d="M41.4,83.7L13.5,47.1v36.5H1V26.1h11.7l27,35.5V26.2h12.5v57.6h-10.8Z"/>
  <path class="st1" d="M85.4,84.8c-16.9,0-29.5-13.1-29.5-29.7v-.2c0-16.4,12.4-29.9,30.1-29.9s17.4,3.6,22.8,8.8l-8.2,9.4c-4.4-4-9-6.4-14.8-6.4-9.7,0-16.7,8.1-16.7,18v.2c0,9.9,6.8,18.1,16.7,18.1s10.6-2.6,15.2-6.8l8.1,8.2c-5.9,6.3-12.6,10.3-23.7,10.3Z"/>
  <path class="st1" d="M113,83.7V26.1h12.7v46.1h28.7v11.5h-41.4Z"/>
  <path class="st1" d="M158.6,83.7V26.1h43.5v11.2h-30.9v11.7h27.1v11.2h-27.1v12.1h31.3v11.2h-43.8v.2h-.1Z"/>
  <polygon class="st1" points="260.2 26.2 244.6 26.2 232.6 43.5 240.5 54.9 232.6 66.3 244.6 83.7 260.2 83.7 240.5 54.9 260.2 26.2"/>
  <polygon class="st2" points="232.6 43.5 220.8 26.2 205.1 26.2 225 54.9 205.1 83.7 220.8 83.7 232.6 66.3 240.5 54.9 232.6 43.5"/>
  <g>
    <path class="st0" d="M267.8,25.8c-2.8,0-4.9,2.3-4.9,4.9s2.2,4.8,4.8,4.8,4.9-2.3,4.9-4.9c.1-2.6-2.1-4.8-4.8-4.8ZM267.8,34.9c-2.3,0-4.1-1.9-4.1-4.1s1.8-4.1,4.1-4.1,4.1,1.9,4.1-4.1-1.9,4.1-4.1,4.1Z"/>
    <path class="st0" d="M269.9,29.8c0-1-.8-1.7-1.9-1.7h-2.3v4.9h1.1v-1.7h.9l1.1,1.7h1.3l-1.3-1.8c.7-.1,1.1-.7,1.1-1.4ZM268,30.5h-1.1v-1.4h1.1c.5,0,.9.3.9.8s-.4.6-.9.6Z"/>
  </g>
</svg>
